<svg id="e9bea365-c674-49e7-8a23-415456db33c2" data-name="Шар 1" xmlns="http://www.w3.org/2000/svg" viewBox="0 0 500 500"><defs><style>.fb9c866a-6556-40b5-a81a-bdbed2d6f034{fill:#aa55e0;}.b21abd9c-f93e-42dd-a286-cfbffa79abe7{fill:#2560b7;}.a825a03e-38cc-4324-967b-557a4e9bcde6{fill:#336dd3;}.fab12002-ed33-40f3-bebd-e068e9699c44{fill:#f4d076;}.bb3386d9-a85a-4329-9bf9-eb97a7f4955d{fill:#dbb153;}.f9bdc95a-d53a-426b-82fb-5c01573ed05e{fill:#edc77a;}.ff4ded14-f496-493c-a501-b7157ebcdadc{fill:#c69b46;}</style></defs><path class="fb9c866a-6556-40b5-a81a-bdbed2d6f034" d="M427.29,359.41C406.18,391.2,368.5,450,327.77,450.2c-44.77.24-56.79,0-89.29,0-3,0-4.87-15-7.12-17.09-28.57-26.63-12.15-136.91-75-178.16C18.51,164.53,21.15,12.46,172.24,96c65.07,36,187.09-38,155.61,97.13C310.77,266.42,498.13,252.74,427.29,359.41Z"/><rect class="b21abd9c-f93e-42dd-a286-cfbffa79abe7" x="243.18" y="256.91" width="89.29" height="193.29"/><path class="a825a03e-38cc-4324-967b-557a4e9bcde6" d="M259,256.91h72.84a0,0,0,0,1,0,0V450.2a0,0,0,0,1,0,0H281.53A22.56,22.56,0,0,1,259,427.64V256.91A0,0,0,0,1,259,256.91Z"/><path class="fab12002-ed33-40f3-bebd-e068e9699c44" d="M341.62,139H234a1.27,1.27,0,0,0-1.22,1.31l.11,66.78a14.2,14.2,0,0,0,2,7.34l.35.58a4,4,0,0,1,.49,1.35l7.39,40.55h89.29l7.39-40.55a3.6,3.6,0,0,1,.49-1.35l.35-.58a14.29,14.29,0,0,0,2-7.34l.11-66.78A1.27,1.27,0,0,0,341.62,139Z"/><path class="bb3386d9-a85a-4329-9bf9-eb97a7f4955d" d="M303,242.52H272.29c-8.08,0-15-6.13-16.57-14.62L251,202a3.79,3.79,0,0,0-.5-1.35l-.34-.57a14.26,14.26,0,0,1-2-7.35L248,139H234a1.26,1.26,0,0,0-1.22,1.31l.11,66.78a14.2,14.2,0,0,0,2,7.34l.35.58a4,4,0,0,1,.49,1.35l7.39,40.55h89.29l2.62-14.39Z"/><rect class="f9bdc95a-d53a-426b-82fb-5c01573ed05e" x="232.02" y="87.62" width="27.9" height="66.64" rx="13.95"/><path class="ff4ded14-f496-493c-a501-b7157ebcdadc" d="M251.41,150.64a14,14,0,0,1-13.95-13.95V98a13.91,13.91,0,0,1,3.72-9.47A14,14,0,0,0,232,101.57v38.74a13.94,13.94,0,0,0,24.18,9.47A13.88,13.88,0,0,1,251.41,150.64Z"/><rect class="f9bdc95a-d53a-426b-82fb-5c01573ed05e" x="259.92" y="88.05" width="27.9" height="66.64" rx="13.95"/><path class="ff4ded14-f496-493c-a501-b7157ebcdadc" d="M279.3,151.07a14,14,0,0,1-13.94-13.95V98.38a13.91,13.91,0,0,1,3.72-9.47A14,14,0,0,0,259.92,102v38.74a13.93,13.93,0,0,0,24.17,9.47A13.79,13.79,0,0,1,279.3,151.07Z"/><rect class="f9bdc95a-d53a-426b-82fb-5c01573ed05e" x="287.82" y="87.4" width="27.9" height="66.64" rx="13.95"/><path class="ff4ded14-f496-493c-a501-b7157ebcdadc" d="M307.2,150.42a14,14,0,0,1-13.95-13.95V97.74A13.93,13.93,0,0,1,297,88.26a14,14,0,0,0-9.16,13.09v38.74A13.93,13.93,0,0,0,312,149.56,13.79,13.79,0,0,1,307.2,150.42Z"/><rect class="f9bdc95a-d53a-426b-82fb-5c01573ed05e" x="315.72" y="87.83" width="27.9" height="66.64" rx="13.95"/><path class="ff4ded14-f496-493c-a501-b7157ebcdadc" d="M335.1,150.85a14,14,0,0,1-14-13.94V98.17a13.9,13.9,0,0,1,3.73-9.47,13.93,13.93,0,0,0-9.16,13.08v38.74A13.93,13.93,0,0,0,339.89,150,13.79,13.79,0,0,1,335.1,150.85Z"/><path class="fab12002-ed33-40f3-bebd-e068e9699c44" d="M275.59,137.07h63a4.26,4.26,0,0,1,4.26,4.26v17.33a4.26,4.26,0,0,1-4.26,4.26H274.25a4.26,4.26,0,0,1-4.26-4.26v-16A5.6,5.6,0,0,1,275.59,137.07Z"/><path class="fab12002-ed33-40f3-bebd-e068e9699c44" d="M299.48,160.57h65.13a1.72,1.72,0,0,1,1.72,1.72v22.4a1.72,1.72,0,0,1-1.72,1.72h-69.4a1.72,1.72,0,0,1-1.72-1.72V166.56A6,6,0,0,1,299.48,160.57Z" transform="translate(503.41 -156.42) rotate(90)"/><path class="bb3386d9-a85a-4329-9bf9-eb97a7f4955d" d="M270,152.83h47a0,0,0,0,1,0,0v10.09a0,0,0,0,1,0,0h-42.7a4.29,4.29,0,0,1-4.29-4.29v-5.79a0,0,0,0,1,0,0Z"/><rect class="bb3386d9-a85a-4329-9bf9-eb97a7f4955d" x="316.99" y="152.83" width="10.27" height="48.22"/></svg>