<svg id="b354c095-4c09-4957-81ba-9478874deb24" data-name="Шар 1" xmlns="http://www.w3.org/2000/svg" xmlns:xlink="http://www.w3.org/1999/xlink" viewBox="0 0 500 500"><defs><style>.e78c4007-91f2-410e-8dc5-66209a593d28{fill:#5b8dd6;}.b65f33a5-25ed-4cdb-9439-cda18461234b{fill:url(#e555048b-84ef-4a0c-aaee-aeb457a00489);}.ffa0a5d8-877c-47ef-998a-b5ce906f0671{fill:#ffb6b6;}.a21ae63e-b2da-4d96-be08-73e3c1d3376f{fill:#2f2e41;}.f1498e71-6db9-4615-96ae-42efdb5e61cb{fill:#6c63ff;}</style><linearGradient id="e555048b-84ef-4a0c-aaee-aeb457a00489" x1="175.82" y1="185.03" x2="259.23" y2="374.77" gradientUnits="userSpaceOnUse"><stop offset="0.47" stop-color="#1a9183"/><stop offset="0.56" stop-color="#1e9889"/><stop offset="0.7" stop-color="#2aaa98"/><stop offset="0.85" stop-color="#3dc9b1"/><stop offset="1" stop-color="#54edcf"/></linearGradient></defs><path class="e78c4007-91f2-410e-8dc5-66209a593d28" d="M102.26,290.93c134.69,0,85.75,167,231.58,155.76,116.5-8.94-35.12-216.89-36.29-264.74C296,116.38,91,8.76,126.32,123.77,136,155.38-65.36,290.93,102.26,290.93Z"/><path class="b65f33a5-25ed-4cdb-9439-cda18461234b" d="M225.26,74.1h0a94.63,94.63,0,0,1,94.63,94.63V446.21a0,0,0,0,1,0,0H130.63a0,0,0,0,1,0,0V168.73A94.63,94.63,0,0,1,225.26,74.1Z"/><path class="ffa0a5d8-877c-47ef-998a-b5ce906f0671" d="M229.7,237.54a5.43,5.43,0,0,1,7.55-.52,5,5,0,0,1,.6.62l17.82-6.37,6.41,7.9-25.35,6.09a5.42,5.42,0,0,1-6.6-.31,5.19,5.19,0,0,1-.52-7.31h0Z"/><polygon class="ffa0a5d8-877c-47ef-998a-b5ce906f0671" points="303.55 437.89 293.82 437.89 289.19 400.38 303.55 400.38 303.55 437.89"/><path class="a21ae63e-b2da-4d96-be08-73e3c1d3376f" d="M303.89,448H274v-.38A11.64,11.64,0,0,1,285.62,436h0l5.47-4.15L301.28,436h2.61Z"/><polygon class="ffa0a5d8-877c-47ef-998a-b5ce906f0671" points="371.71 420 363.76 425.6 338.4 397.57 350.14 389.31 371.71 420"/><path class="a21ae63e-b2da-4d96-be08-73e3c1d3376f" d="M377.83,428.11l-24.46,17.2-.22-.31A11.65,11.65,0,0,1,356,428.78h0l2.08-6.53,10.72-2.47,2.14-1.51Z"/><path class="a21ae63e-b2da-4d96-be08-73e3c1d3376f" d="M342.3,251.26l.8,1.73a61.61,61.61,0,0,1,4.61,36.39,2.13,2.13,0,0,0,.08,1.47c1.28,1.5-.73,8-1.88,11.67l-1,6.44s1.73,6-.89,5.54,1.28,5.94-1.21,7.54l-6.47,40.15,27,44.47-10,14.49-40-51.47-.5-46.47-6,37.48-.5,59-18.18-1.93-6.66-57.17,6.35-79.05,10-34.28Z"/><path class="f1498e71-6db9-4615-96ae-42efdb5e61cb" d="M329.8,148.34l-14.7.7-7,12.15-10,3-8.49,21,5.21,65.41s1,4-.88,3.38-1.14,4.39-1.14,4.39l-7.09,27.25,64.44-5.6-3.58-28.88s5,.16,1.47-3.34-5.19-2.38-1.83-6.51,3.86-7.14,3.86-7.14l1.49-20.48L354,184.83a27.73,27.73,0,0,0-10.47-24.14h0Z"/><path class="ffa0a5d8-877c-47ef-998a-b5ce906f0671" d="M364.52,291.15a5.43,5.43,0,0,0-1.35-7.45,6,6,0,0,0-.74-.43l1.82-18.83L355,260.15l.29,26.07a5.41,5.41,0,0,0,1.92,6.32,5.18,5.18,0,0,0,7.21-1.27Z"/><path class="f1498e71-6db9-4615-96ae-42efdb5e61cb" d="M350.59,168.86s21.18,50.45,20.54,69.83l-7,35.72-9.8-.7.7-32.22c3.58-3.66-11.4-24.32-16.33-38.85Z"/><path class="f1498e71-6db9-4615-96ae-42efdb5e61cb" d="M299.07,163.69s-26.29,47.88-36.47,62l-7.73,6v9.8l18,.4s26.73-22.24,25.73-33.23S299.07,163.69,299.07,163.69Z"/><circle class="ffa0a5d8-877c-47ef-998a-b5ce906f0671" cx="322.18" cy="126.32" r="18.65"/><path class="a21ae63e-b2da-4d96-be08-73e3c1d3376f" d="M329.39,143.44c-5.36-.18-5.84-1.59-11.2-1.77-1.7,0-3.71-.29-4.54-1.78a4,4,0,0,1,.2-3.5,29,29,0,0,0,1.65-3.24,5.66,5.66,0,0,0-5.61-7.47c-1.63.07-3.16.83-4.78,1-2.23.2-7.16-7.16-6.13-9.15s3-3.39,3.32-5.54c.21-1.41-.37-2.81-.45-4.23-.12-2.11,5.22,2.64,4.24.77-2.4-4.59,20.22-10.27,23.94-4.53,1.39,2.15,3.87,2,6.08,3.29,1.45.85,5.11,3.77,5.94,5.58a14,14,0,0,1,1.06,5.86c0,9.33-1.39,17.9-8.91,23.41"/></svg>