<svg id="f4237277-4070-449c-9c42-e9e53f60517a" data-name="Шар 1" xmlns="http://www.w3.org/2000/svg" viewBox="0 0 500 500"><defs><style>.a1cedfaf-a232-44c4-8836-303d5672e29e{fill:#5757dd;}.ae220426-5c6d-48f1-a87e-6d207870b814{fill:#fff;}.bfb0e785-387d-4701-b540-8cc295d11dae{fill:#9e616a;}.a72c450f-131d-4215-bdb7-737f70cf5991{fill:#2f2e41;}.e09ebc86-0c2e-4af2-a977-18acf2acdcb6{fill:#e6e6e6;}.a86dc843-ae53-4800-afba-469b87cddc93{fill:#3f3d56;}.f045f16b-a3e7-4501-966e-70f37606dbe8{fill:#5fa3a0;}.f1612a0e-962f-4638-9590-f008f6abee50{fill:#4e918b;}</style></defs><path class="a1cedfaf-a232-44c4-8836-303d5672e29e" d="M326.26,371.2c-31.83,53.71-214.11,140-146.87-25.77C220.13,245,57.84,261,93.51,194.27c40.4-75.58,165.3-154.57,176.93-3.44.85,11.17,62.52-10.68,77.3,6.87C375.22,230.34,385.66,271,326.26,371.2Z"/><path class="ae220426-5c6d-48f1-a87e-6d207870b814" d="M144.45,412.33a16.38,16.38,0,0,1,1.8-21.13c.56-.55,1.45.29.89.84a15.15,15.15,0,0,0-1.64,19.66c.46.64-.6,1.26-1.05.63Z"/><polygon class="bfb0e785-387d-4701-b540-8cc295d11dae" points="266.22 401.65 257.94 401.65 254 369.72 266.22 369.72 266.22 401.65"/><polygon class="bfb0e785-387d-4701-b540-8cc295d11dae" points="227.06 401.65 218.78 401.65 214.84 369.72 227.06 369.72 227.06 401.65"/><path class="a72c450f-131d-4215-bdb7-737f70cf5991" d="M227.35,410.28H201.9V410a9.91,9.91,0,0,1,9.9-9.91h0l4.65-3.52,8.68,3.52h2.22Z"/><path class="a72c450f-131d-4215-bdb7-737f70cf5991" d="M267.57,410.28H242.12V410a9.91,9.91,0,0,1,9.9-9.91h0l4.65-3.52,8.68,3.52h2.22Z"/><path class="a72c450f-131d-4215-bdb7-737f70cf5991" d="M218.94,212.7l-12.58,76.6,3.42,11.41-4.49,8.09,6.6,71-2.68,5.9,7.48,4.61h15.23l.8-64.27,3.77-9.44v-5.2l7.65-39.19,1.41,54.88,2.23,9.46-1.87,6.73,2.44,4.71,6.49,43.72h17.07l-1.32-10.17h0a7.51,7.51,0,0,0,4-8.32l-1-4.46,2.23-13.18L279.85,282l-1.15-59.34-20-15.27Z"/><circle id="b6a0bf00-e567-4762-913a-9017e93e62db" data-name="ab6171fa-7d69-4734-b81c-8dff60f9761b" class="bfb0e785-387d-4701-b540-8cc295d11dae" cx="247.78" cy="98.48" r="15.86"/><path class="bfb0e785-387d-4701-b540-8cc295d11dae" d="M213.12,243.1a6.79,6.79,0,0,0-.15-9.6,7.52,7.52,0,0,0-.93-.76l6.16-23.32-11.88,4-4,21.53a6.82,6.82,0,0,0,10.83,8.15Z"/><path id="af77565e-8361-4177-948e-6cc63254b633" data-name="bc44dde2-a388-4b93-9ca4-c442728432a9-353" class="e09ebc86-0c2e-4af2-a977-18acf2acdcb6" d="M219.61,131.11l-2.55-.53-2.17,1.21s-6.08,8.1-6.08,15.53-7.42,79-7.42,79l13.5,6.07,10.8-56Z"/><path id="afab009e-1803-4ce5-a19b-fa80c7e9ef36" data-name="bf427902-b9bf-4946-b5d7-5c1c7e04535e-354" class="a72c450f-131d-4215-bdb7-737f70cf5991" d="M261.67,86.85s4.15-7.93-5-8.65c0,0-7.78-7.06-15.71-1.29,0,0-4.33,0-6.69,4.9,0,0-3.41-1.29-4.15,2.16,0,0-2.49,7.21,0,13.7s3.31,7.21,3.31,7.21-4.09-13.61,5.87-14.33,21.1-6.94,21.93,1,2.08,9.88,2.08,9.88S271.21,90.1,261.67,86.85Z"/><path class="bfb0e785-387d-4701-b540-8cc295d11dae" d="M279.55,244.47a6.78,6.78,0,0,1,2.62-9.23,6.62,6.62,0,0,1,1.09-.49l.05-24.13,10.45,6.92-1.64,21.85a6.83,6.83,0,0,1-12.57,5.08Z"/><path id="b088effe-e436-4f4a-840c-3cec6d2cb316" data-name="f348f81f-b961-4ae4-bc6b-758f6acfb12a-355" class="e09ebc86-0c2e-4af2-a977-18acf2acdcb6" d="M280.52,137.72l4.67-4.5,3.43,2.48s3.37,4.05,6.07,16.2,0,79,0,79l-14.85-2,2-35.11-6.08-29.71Z"/><path class="a86dc843-ae53-4800-afba-469b87cddc93" d="M287.41,134.32l-15.73-7.52L261,116.9l-19.48-.15-6.28,8.17-16.59,5.63,2.76,57.21-1.88,4.4s1.31,1.19,1.91,1.85-.83,6.22-.83,6.22l-.8,6.05,2.23,1.59-2.9,3.43-.73,5.42s50.73-12.61,60.31,8.27c.51,1.11-.74-9.68-.74-9.68l-1.25-7.89,1.24-7.09,1.89-1.88-3.16-3.17,2-15Z"/><polygon class="f045f16b-a3e7-4501-966e-70f37606dbe8" points="298.32 440.47 197.9 440.47 171.08 236.67 324.21 236.67 298.32 440.47"/><path class="f1612a0e-962f-4638-9590-f008f6abee50" d="M280.87,426H215.39a7.55,7.55,0,0,1-7.36-7.19L197.92,274.06a7.61,7.61,0,0,1,7.36-8.33H290a7.61,7.61,0,0,1,7.36,8.27l-9.08,144.71A7.54,7.54,0,0,1,280.87,426Z"/><polygon class="f1612a0e-962f-4638-9590-f008f6abee50" points="171.08 236.67 172.69 248.91 322.01 254.01 324.21 236.67 171.08 236.67"/><path class="f045f16b-a3e7-4501-966e-70f37606dbe8" d="M329.23,241.74H165.55a5.07,5.07,0,0,1-4.88-4.07l-1.36-6.13a5.21,5.21,0,0,1,4.88-6.47h167a5.24,5.24,0,0,1,4.75,7l-2,6.13A5,5,0,0,1,329.23,241.74Z"/><rect class="f1612a0e-962f-4638-9590-f008f6abee50" x="186.57" y="433.19" width="124.33" height="9.26" rx="3.24"/></svg>